<svg xmlns="http://www.w3.org/2000/svg" viewBox="0 0 30 30" width="30" height="30" fill="none">
  <path fill="currentColor" d="M18.375 0A3.392 3.392 0 0 0 15 3.375v9.75a1.124 1.124 0 0 0 1.749.936l4.217-2.811h5.659A3.392 3.392 0 0 0 30 7.875v-4.5A3.392 3.392 0 0 0 26.625 0h-8.25ZM7.531.01c-.494-.036-1 .015-1.496.161h-.001L4.26.697C2.368 1.257.89 2.757.39 4.652c-1.11 4.214.16 9.2 3.465 14.814 3.302 5.606 7.063 9.169 11.312 10.332a5.757 5.757 0 0 0 5.426-1.323l1.35-1.253a4.09 4.09 0 0 0 .516-5.4l-1.951-2.65a4.2 4.2 0 0 0-4.585-1.516l-3.053.914c-.128.037-.435-.137-.701-.368l-.002-.001c-.475-.414-1.134-1.25-1.838-2.444v-.001c-.756-1.283-1.078-2.122-1.207-2.618-.13-.496-.098-.556-.08-.724a.355.355 0 0 1 .118-.222l.001-.002 2.277-2.081a4.079 4.079 0 0 0 .962-4.7l-1.374-2.995v-.002C10.38 1.004 9.01.118 7.53.01Zm10.844 2.24h8.25c.635 0 1.125.49 1.125 1.125v4.5C27.75 8.51 27.26 9 26.625 9h-6c-.222 0-.44.066-.624.189l-2.751 1.834V3.375c0-.635.49-1.125 1.125-1.125Zm-11.007.004c.689.052 1.323.465 1.613 1.097l1.373 2.995a1.798 1.798 0 0 1-.436 2.103l-2.274 2.08a2.611 2.611 0 0 0-.837 1.632v.002a4.47 4.47 0 0 0 .138 1.543c.2.767.613 1.782 1.444 3.192h.002c.775 1.315 1.507 2.314 2.3 3.003h.002c.258.223 1.338 1.258 2.807.83l.004-.002 3.066-.919a1.944 1.944 0 0 1 2.126.696l1.951 2.65a1.81 1.81 0 0 1-.234 2.417l-1.351 1.254a3.544 3.544 0 0 1-3.302.8c-3.434-.94-6.833-3.983-9.965-9.302C2.658 13 1.677 8.595 2.565 5.226c.293-1.111 1.192-2.034 2.333-2.371l1.774-.526a1.94 1.94 0 0 1 .696-.075Z" />
</svg>
