<svg xmlns="http://www.w3.org/2000/svg" viewBox="0 0 30 24" width="30" height="24" fill="none">
  <path fill="currentColor" d="M4.875 0C2.196 0 0 2.196 0 4.875v14.25C0 21.804 2.196 24 4.875 24h20.25C27.804 24 30 21.804 30 19.125V4.875C30 2.196 27.804 0 25.125 0H4.875Zm0 2.25h20.25a2.609 2.609 0 0 1 2.625 2.625v.83L15 12.595 2.25 5.704v-.829A2.609 2.609 0 0 1 4.875 2.25ZM2.25 8.262l12.215 6.603a1.125 1.125 0 0 0 1.07 0L27.75 8.262v10.863a2.609 2.609 0 0 1-2.625 2.625H4.875a2.609 2.609 0 0 1-2.625-2.625V8.262Z" />
</svg>
