<svg xmlns="http://www.w3.org/2000/svg" viewBox="0 0 34 34" width="34" height="34" fill="none">
  <path fill="currentColor" d="M10.625.875c-1.585 0-2.87 1.14-3.223 2.625h-.527A3.392 3.392 0 0 0 3.5 6.875v13.277C2.016 20.506.875 21.79.875 23.375s1.14 2.87 2.625 3.223v.527A3.392 3.392 0 0 0 6.875 30.5h13.277c.354 1.484 1.638 2.625 3.223 2.625s2.87-1.14 3.223-2.625h.527a3.392 3.392 0 0 0 3.375-3.375V13.848c1.484-.354 2.625-1.638 2.625-3.223s-1.14-2.87-2.625-3.223v-.527A3.392 3.392 0 0 0 27.125 3.5H13.848C13.494 2.016 12.21.875 10.625.875Zm0 2.25c.635 0 1.125.49 1.125 1.125v.375a1.125 1.125 0 0 0 1.125 1.125h3v2.625A1.125 1.125 0 0 0 17 9.5h.375c.635 0 1.125.49 1.125 1.125s-.49 1.125-1.125 1.125H17a1.125 1.125 0 0 0-1.125 1.125v3h-2.027c-.354-1.484-1.638-2.625-3.223-2.625s-2.87 1.14-3.223 2.625H5.75v-9c0-.635.49-1.125 1.125-1.125h1.5A1.125 1.125 0 0 0 9.5 4.625V4.25c0-.635.49-1.125 1.125-1.125Zm7.5 2.625h9c.635 0 1.125.49 1.125 1.125v1.5A1.125 1.125 0 0 0 29.375 9.5h.375c.635 0 1.125.49 1.125 1.125s-.49 1.125-1.125 1.125h-.375a1.125 1.125 0 0 0-1.125 1.125v3h-2.625A1.125 1.125 0 0 0 24.5 17v.375c0 .635-.49 1.125-1.125 1.125s-1.125-.49-1.125-1.125V17a1.125 1.125 0 0 0-1.125-1.125h-3v-2.027c1.484-.354 2.625-1.638 2.625-3.223s-1.14-2.87-2.625-3.223V5.75Zm-7.5 9.75c.635 0 1.125.49 1.125 1.125V17a1.125 1.125 0 0 0 1.125 1.125h3v2.027c-1.484.354-2.625 1.638-2.625 3.223s1.14 2.87 2.625 3.223v1.652h-9c-.635 0-1.125-.49-1.125-1.125v-1.5A1.125 1.125 0 0 0 4.625 24.5H4.25c-.635 0-1.125-.49-1.125-1.125s.49-1.125 1.125-1.125h.375a1.125 1.125 0 0 0 1.125-1.125v-3h2.625A1.125 1.125 0 0 0 9.5 17v-.375c0-.635.49-1.125 1.125-1.125Zm7.5 2.625h2.027c.354 1.484 1.638 2.625 3.223 2.625s2.87-1.14 3.223-2.625h1.652v9c0 .635-.49 1.125-1.125 1.125h-1.5a1.125 1.125 0 0 0-1.125 1.125v.375c0 .635-.49 1.125-1.125 1.125s-1.125-.49-1.125-1.125v-.375a1.125 1.125 0 0 0-1.125-1.125h-3v-2.625A1.125 1.125 0 0 0 17 24.5h-.375c-.635 0-1.125-.49-1.125-1.125s.49-1.125 1.125-1.125H17a1.125 1.125 0 0 0 1.125-1.125v-3Z" />
</svg>
