<svg xmlns="http://www.w3.org/2000/svg" viewBox="0 0 32 32" width="32" height="32" fill="none">
  <path fill="currentColor" d="M8.625 0C3.875 0 0 3.875 0 8.625s3.875 8.625 8.625 8.625 8.625-3.875 8.625-8.625S13.375 0 8.625 0Zm0 2.25A6.358 6.358 0 0 1 15 8.625 6.358 6.358 0 0 1 8.625 15 6.358 6.358 0 0 1 2.25 8.625 6.358 6.358 0 0 1 8.625 2.25Zm-.018 1.484A1.125 1.125 0 0 0 7.5 4.875v3.75c0 .298.119.584.33.795l1.5 1.5a1.125 1.125 0 1 0 1.59-1.59L9.75 8.16V4.874a1.125 1.125 0 0 0-1.143-1.141Zm9.258.766c.318.711.558 1.464.705 2.25h8.055a2.628 2.628 0 0 1 2.625 2.625V10.5H18.57a10.09 10.09 0 0 1-.705 2.25H29.25v13.875a2.628 2.628 0 0 1-2.625 2.625H9.375a2.628 2.628 0 0 1-2.625-2.625V18.57a10.09 10.09 0 0 1-2.25-.705v8.76A4.88 4.88 0 0 0 9.375 31.5h17.25a4.88 4.88 0 0 0 4.875-4.875V9.375A4.88 4.88 0 0 0 26.625 4.5h-8.76ZM18 15.75a1.875 1.875 0 1 0 0 3.75 1.875 1.875 0 0 0 0-3.75Zm6.375 0a1.875 1.875 0 1 0 0 3.75 1.875 1.875 0 0 0 0-3.75Zm-12.75 6.75a1.875 1.875 0 1 0 0 3.75 1.875 1.875 0 0 0 0-3.75Zm6.375 0a1.875 1.875 0 1 0 0 3.75 1.875 1.875 0 0 0 0-3.75Z" />
</svg>
