<svg xmlns="http://www.w3.org/2000/svg" viewBox="0 0 32 27" width="32" height="27" fill="none">
  <path fill="currentColor" d="M10.353.74c-.292.008-.57.13-.773.34L5.125 5.534 2.92 3.33a1.125 1.125 0 1 0-1.59 1.59l3 3a1.125 1.125 0 0 0 1.59 0l5.25-5.25a1.125 1.125 0 0 0-.817-1.93Zm3.772 3.01a1.126 1.126 0 1 0 0 2.25h15.75a1.125 1.125 0 1 0 0-2.25h-15.75Zm0 10.125a1.126 1.126 0 1 0 0 2.25h15.75A1.127 1.127 0 0 0 31.016 15a1.126 1.126 0 0 0-1.14-1.125h-15.75Zm0 10.125a1.126 1.126 0 1 0 0 2.25h15.75a1.127 1.127 0 0 0 1.141-1.125A1.126 1.126 0 0 0 29.876 24h-15.75Z" />
</svg>
