<svg aria-label="kitemana" xmlns="http://www.w3.org/2000/svg" viewBox="0 0 156 48" width="156" height="48" fill="none">
          <path
            fill="#222"
            d="m21.847 46.823-10.33-10.425 8.721-8.765a.528.528 0 0 0 .127-.596.552.552 0 0 0-.51-.34H12.49a.458.458 0 0 0-.381.17l-5.8 5.785V27.25a.564.564 0 0 0-.548-.553H.551A.56.56 0 0 0 0 27.25V47.29a.563.563 0 0 0 .55.553H5.8a.56.56 0 0 0 .55-.553v-5.616l.72-.724 6.648 6.723a.63.63 0 0 0 .381.17h7.368a.56.56 0 0 0 .55-.553.475.475 0 0 0-.169-.469M28.54 26.697h-5.21a.56.56 0 0 0-.551.553V47.29a.564.564 0 0 0 .55.553h5.211a.56.56 0 0 0 .55-.553V27.25a.563.563 0 0 0-.55-.553ZM47.844 26.654H32.136a.56.56 0 0 0-.55.553v5.234a.563.563 0 0 0 .55.553h4.615v14.255a.564.564 0 0 0 .55.553h5.25a.56.56 0 0 0 .551-.553V32.995h4.742a.56.56 0 0 0 .55-.553v-5.235a.564.564 0 0 0-.55-.553ZM63.848 26.697H51.485a.56.56 0 0 0-.55.553V47.29a.563.563 0 0 0 .55.553h12.363a.56.56 0 0 0 .55-.553v-4.34a.564.564 0 0 0-.55-.553h-6.605v-2.595h5.761a.56.56 0 0 0 .551-.553v-4.383a.563.563 0 0 0-.55-.553h-5.762v-2.17h6.605a.56.56 0 0 0 .55-.554v-4.34a.564.564 0 0 0-.55-.553ZM88.532 26.697H86.16a.68.68 0 0 0-.381.128l-7.707 7.106-7.748-7.106a.517.517 0 0 0-.381-.128h-2.371a.56.56 0 0 0-.55.553V47.29a.563.563 0 0 0 .55.553h5.25a.56.56 0 0 0 .55-.553v-9.066l4.319 3.911a.572.572 0 0 0 .72 0l4.276-3.957v9.027a.563.563 0 0 0 .55.553h5.25a.56.56 0 0 0 .55-.553V27.25a.482.482 0 0 0-.507-.553M103.392 26.995a.513.513 0 0 0-.507-.298h-2.371a.583.583 0 0 0-.508.298l-9.315 20.041a.446.446 0 0 0 .042.51.487.487 0 0 0 .466.256h5.25a.55.55 0 0 0 .508-.34l1.058-2.298h7.454l1.059 2.297a.512.512 0 0 0 .507.298h5.25a.534.534 0 0 0 .466-.255.544.544 0 0 0 .042-.51l-9.401-20Zm.089 12.68h-3.429l1.735-3.362 1.694 3.362ZM131.718 26.697h-5.25a.558.558 0 0 0-.55.553v8.127l-8.469-8.51a.627.627 0 0 0-.381-.17h-2.116a.56.56 0 0 0-.551.553V47.29a.564.564 0 0 0 .551.553h5.249a.56.56 0 0 0 .551-.553v-8.17l8.468 8.554a.63.63 0 0 0 .381.17h2.16a.56.56 0 0 0 .55-.553V27.25a.633.633 0 0 0-.593-.553ZM155.936 47.036l-9.395-20.041a.519.519 0 0 0-.508-.298h-2.329a.583.583 0 0 0-.507.298l-9.32 20.041a.444.444 0 0 0 .043.51.481.481 0 0 0 .465.256h5.25a.546.546 0 0 0 .508-.34l1.058-2.298h7.455l1.058 2.297a.512.512 0 0 0 .508.298h5.25a.528.528 0 0 0 .465-.255.46.46 0 0 0 0-.468m-9.273-7.361h-3.429l1.735-3.362 1.694 3.362Z"
          />
          <path
            fill="#222"
            d="m92.723 15.506.043-.043a.149.149 0 0 1 .042-.089.04.04 0 0 1 .013-.03.04.04 0 0 1 .03-.012c0-.043.043-.09.043-.128v-.248a.156.156 0 0 0-.043-.128c0-.043 0-.043-.043-.09a.042.042 0 0 0-.042-.042L86.246 1.38c-.043-.043-.043-.09-.089-.128l-.042-.043-.089-.089-.042-.043h-.043l-.043-.042h-.042A.154.154 0 0 0 85.738 1h-.043a.155.155 0 0 1-.126-.043h-.17a.154.154 0 0 0-.126.043c-.043 0-.089.043-.127.043h-.043a.041.041 0 0 0-.04.026.044.044 0 0 0-.002.016l-6.817 4.298-6.775-4.344a.148.148 0 0 1-.088-.043.042.042 0 0 1-.035-.042c-.043 0-.089-.043-.127-.043h-.05a.928.928 0 0 0-.339.043h-.042c-.043 0-.089.042-.127.042a.041.041 0 0 0-.04.027.042.042 0 0 0-.003.016.088.088 0 0 0-.088.089l-.043.043-.088.089-.028.034c0 .043-.042.043-.042.09L64.02 14.45a.81.81 0 0 0 .043 1.148l13.675 12.638c.043.042.09.042.127.088a.155.155 0 0 0 .127.043h.042c.043 0 .09 0 .09.043h.169a.38.38 0 0 0 .211-.043h.043a.22.22 0 0 0 .17-.089c.042-.042.088-.042.126-.089l13.845-12.637.043-.043c-.043.043 0 .043 0 0M85.738 4.017l4.318 8.723-5.761-3.617 1.443-5.106Zm-1.609-.426L82.816 8.23 79.81 6.315l4.32-2.724Zm-5.843 3.702 4.107 2.596-4.15 14.723-4.06-14.723 4.103-2.596Zm-4.573.936-1.312-4.68 4.36 2.724-3.047 1.956Zm-2.878-4.17 1.397 5.107-5.588 3.532 4.19-8.638ZM65.88 15.124l6.817-4.298 3.98 14.254-10.797-9.956Zm13.93 9.955 4.022-14.34 6.901 4.341-10.923 10Z"
          />
        </svg>
