<svg aria-label="energielive" xmlns="http://www.w3.org/2000/svg" viewBox="0 0 156 44" width="156" height="44" fill="none">
          <path fill="#2F0051" d="M101.483 19.639c-4.886 0-8.001 3.216-8.001 7.682 0 4.704 3.084 7.83 8.276 7.83 2.238 0 4.768-.739 6.364-2.272a.152.152 0 0 0-.002-.218l-2.165-2.084a.152.152 0 0 0-.208 0c-.891.802-2.607 1.27-3.928 1.27-2.54 0-4.139-1.227-4.461-2.952a.15.15 0 0 1 .15-.175h11.441a.153.153 0 0 0 .152-.139c.519-5.952-2.617-8.942-7.618-8.942Zm3.856 6.074h-7.743a.15.15 0 0 1-.144-.196c.604-1.775 2.208-2.662 4.153-2.662 2.072 0 3.57.894 3.883 2.683a.15.15 0 0 1-.149.175Z" />
          <path fill="#2F0051" fillRule="evenodd" d="M91.415 35.327H89.53l-1.884.001-.005-14.784h3.77l.004 14.783Z" clipRule="evenodd" />
          <path
            fill="#2F0051"
            d="M87.325 16.486c0 2.828 4.397 2.828 4.397 0 0-2.829-4.397-2.829-4.397 0ZM85.465 20.732a.15.15 0 0 0-.028-.216l-2.505-1.846a.15.15 0 0 0-.207.026l-1.322 1.631a.15.15 0 0 1-.196.032c-1.014-.624-2.19-.762-3.34-.762-4.214 0-7.634 2.858-7.634 7.443 0 4.586 2.932 7.385 7.635 7.385 1.863 0 3.817.922 3.817 2.947s-1.68 3.156-3.817 3.156c-2.083 0-3.846-1.186-3.936-3.01a.151.151 0 0 0-.15-.146h-3.395a.152.152 0 0 0-.152.155c.084 3.872 3.323 6.395 7.633 6.395 4.367 0 7.544-2.5 7.544-6.55 0-1.807-.568-3.504-2.849-4.717a.15.15 0 0 1 .001-.265c2.257-1.162 2.909-3.6 2.909-5.35 0-1.568-.407-2.994-1.504-4.252a.15.15 0 0 1-.005-.193l1.501-1.863ZM77.868 31.12c-2.168 0-3.94-1.519-3.94-4.08 0-2.56 1.772-4.138 3.94-4.138 2.138 0 3.91 1.608 3.91 4.138 0 2.531-1.772 4.08-3.91 4.08ZM70.29 21.003c-.839-.764-2.288-1.32-3.793-1.32-1.437 0-2.9.237-4.035 1.777a.15.15 0 0 1-.27-.063l-.195-1.2a.15.15 0 0 0-.149-.127h-3.172a.15.15 0 0 0-.15.15v14.378c0 .083.067.15.15.15h3.425a.15.15 0 0 0 .15-.15v-7.591c0-2.71 1.802-3.722 3.757-3.722 1.146 0 1.835.288 2.546.84a.151.151 0 0 0 .227-.047l1.54-2.893a.15.15 0 0 0-.03-.182ZM48.713 19.64c-4.887 0-8.002 3.215-8.002 7.68 0 4.705 3.085 7.831 8.277 7.831 2.238 0 4.767-.738 6.363-2.272a.152.152 0 0 0-.001-.218l-2.166-2.084a.152.152 0 0 0-.208 0c-.89.802-2.606 1.27-3.927 1.27-2.541 0-4.139-1.227-4.461-2.952a.15.15 0 0 1 .149-.175h11.442a.153.153 0 0 0 .151-.139c.52-5.952-2.617-8.942-7.617-8.942Zm3.855 6.073h-7.742a.15.15 0 0 1-.144-.196c.604-1.775 2.208-2.662 4.153-2.662 2.072 0 3.57.894 3.883 2.684a.15.15 0 0 1-.15.174ZM32.349 19.833c-1.788 0-3.25.664-4.693 1.967a.18.18 0 0 1-.297-.113l-.183-1.487a.18.18 0 0 0-.178-.158h-2.99c-.1 0-.18.08-.18.18v1.306c.076 5.69-4.498 9.984-10.02 9.835-5.486-.148-9.832-4.25-9.84-9.84-.002-2.173.182-4.001 1.666-5.985a.09.09 0 0 1 .132-.015c2.11 1.82 5.956 3.081 8.658 3.079 4.043-.005 6.829-1.965 7.171-5.124.15-1.408-.304-2.844-1.28-4.044-1.175-1.447-2.945-2.387-4.857-2.58-3.203-.32-5.881.535-8.946 2.925-.06.047-.15.004-.149-.072.069-2.993 2.507-5.071 4.84-6.194a.178.178 0 0 0 .085-.236L10.002.505A.181.181 0 0 0 9.76.418C5.533 2.438 2.926 6.01 2.944 9.775a7 7 0 0 0 .603 2.815.087.087 0 0 1-.014.092C1.453 15.108.374 17.873.374 21.523c0 7.37 6.027 13.435 13.434 13.435 3.817 0 7.264-1.601 9.712-4.165a.18.18 0 0 1 .308.125v3.653c0 .099.08.18.18.18h3.336c.099 0 .18-.081.18-.18v-7.324c0-2.233 1.557-4.109 3.848-4.109 2.382 0 3.634 1.698 3.634 3.93v7.503c0 .099.08.18.18.18h3.366c.1 0 .18-.081.18-.18v-7.532c0-4.615-2.84-7.206-6.383-7.206ZM8.107 12.875c2.298-1.869 4.217-2.907 7.01-2.623 2.142.219 3.212 1.902 3.083 2.861-.297 2.216-3.67 2.088-4.268 2.06-2.014-.09-4.345-.91-5.827-2.157a.092.092 0 0 1 .002-.14Z"
          />
          <path
            fill="#C0C834"
            d="M147.918 19.684c-4.886 0-8.002 3.216-8.002 7.682 0 4.704 3.085 7.83 8.277 7.83 2.238 0 4.767-.738 6.364-2.272a.152.152 0 0 0-.002-.218l-2.166-2.084a.152.152 0 0 0-.208 0c-.89.802-2.606 1.27-3.927 1.27-2.541 0-4.139-1.227-4.461-2.951a.15.15 0 0 1 .149-.176h11.442c.079 0 .145-.06.152-.139.519-5.952-2.617-8.942-7.618-8.942Zm3.856 6.074h-7.743a.15.15 0 0 1-.144-.196c.604-1.775 2.208-2.662 4.153-2.662 2.072 0 3.57.894 3.883 2.684a.15.15 0 0 1-.149.174ZM139.733 20.087H136a.15.15 0 0 0-.138.092L133.824 25l-2.15 5.757a.15.15 0 0 1-.282 0l-2.18-5.816-2.037-4.762a.152.152 0 0 0-.139-.091h-3.732a.15.15 0 0 0-.138.211l6.312 14.466a.15.15 0 0 0 .138.091h3.834a.15.15 0 0 0 .138-.09l6.283-14.467a.15.15 0 0 0-.138-.211ZM117.555 15.978c0 2.829 4.397 2.829 4.397 0 0-2.828-4.397-2.828-4.397 0ZM121.468 20.057h-3.424a.151.151 0 0 0-.151.15v14.438c0 .083.068.15.151.15h3.424a.15.15 0 0 0 .151-.15V20.208a.15.15 0 0 0-.151-.15ZM114.876 13.983h-3.567a.15.15 0 0 0-.15.151v20.51c0 .084.067.151.15.151h3.567a.151.151 0 0 0 .151-.15v-20.51a.151.151 0 0 0-.151-.152Z"
          />
        </svg>
