<svg aria-label="gps buddy" xmlns="http://www.w3.org/2000/svg" viewBox="0 0 160 20" width="160" height="20" fill="none">
          <path
            fill="#2B60E7"
            d="M31.9 8.7h11.4c0 .5.1.7.1 1C43.4 15.6 39 20 33.1 20c-5.7 0-10.2-4.4-10.2-10.1 0-5.6 4.5-9.9 10.3-9.9 4.4 0 8.5 2.9 9.6 6.8h-5.5c-.9-1.6-2.4-2.5-4.2-2.5-3 0-5.2 2.3-5.2 5.4 0 3.6 2.2 6 5.6 6 2.2 0 3.8-1.2 4.2-3.1H32V8.7h-.1ZM44 19.6V.4h6.3c3.1 0 4.6.4 5.9 1.4 1.4 1.2 2.3 3 2.3 5.1 0 1.9-.8 3.8-2 5-1.3 1.2-2.9 1.7-5.6 1.7h-2.1v6H44Zm4.7-10.4h2c2.1 0 3.1-.7 3.1-2.2 0-1.6-1-2.3-3.3-2.3h-1.8v4.5ZM72 6h-4.9c-.2-1.3-.7-1.8-1.8-1.8-.9 0-1.7.7-1.7 1.5s.5 1.4 1.6 1.9l2.4 1.1c3.2 1.5 4.5 3 4.5 5.5 0 3.7-2.5 5.9-6.7 5.9-4.3 0-7-2.3-7-6.1v-.6h4.9c0 1.6.8 2.6 2 2.6 1.1 0 1.9-.8 1.9-1.8 0-.9-.6-1.5-2-2.1-1.2-.5-1.9-.8-2.2-.9-.9-.4-1.6-.8-2.3-1.4-1.2-1-1.9-2.5-1.9-4 0-3.2 3-5.7 6.7-5.7 2.1 0 4.1.8 5.2 2.2.9 1 1.2 1.8 1.3 3.7ZM80.1 8h-7.3v3.7h7.3V8ZM81.5 19.6V.4h5.9c3.2 0 4.5.3 5.5 1.1 1.1.9 1.8 2.4 1.8 4 0 1.7-.8 3.1-2.2 3.9 2.1.7 3.2 2.2 3.2 4.5 0 1.6-.6 3.1-1.8 4.2-1.4 1.4-2.7 1.7-6.3 1.7h-6.1v-.2Zm4.7-11.9h1.7c1.4 0 2.1-.5 2.1-1.5s-.6-1.5-2.1-1.5h-1.7v3Zm0 7.6h2.3c1.6 0 2.5-.6 2.5-1.8 0-1.2-.8-1.7-2.5-1.7h-2.3v3.5ZM96.1.4h4.9V12c0 2.5.7 3.6 2.5 3.6s2.5-1 2.5-3.6V.4h4.9V12c0 2.9-.5 4.4-1.9 5.9-1.4 1.4-3.2 2.1-5.5 2.1-2.2 0-4.2-.7-5.5-2-1.5-1.5-1.9-2.9-1.9-5.9V.4ZM111.8 19.6V.4h6.5c2.9 0 4.4.3 6.1 1.4.9.5 1.7 1.3 2.3 2.2 1.2 1.6 1.8 3.6 1.8 5.9 0 5.8-3.6 9.7-9.1 9.7h-7.6Zm4.9-4.3h2.1c3.1 0 4.7-1.8 4.7-5.2 0-3.4-1.7-5.4-4.7-5.4h-2.1v10.6ZM129.1 19.6V.4h6.5c2.9 0 4.4.3 6.1 1.4.9.5 1.7 1.3 2.3 2.2 1.2 1.6 1.8 3.6 1.8 5.9 0 5.8-3.6 9.7-9.1 9.7h-7.6Zm4.9-4.3h2.1c3.1 0 4.7-1.8 4.7-5.2 0-3.4-1.7-5.4-4.7-5.4H134v10.6Z"
          />
          <path fill="#2B60E7" d="M149.4 19.6v-7L143.6.4h5.4l2.8 7.7 2.9-7.7h5.3l-5.7 12.2v7h-4.9ZM20 5.7l-.3-.6C18.6 3 16.9 1.3 14.9.3l-.7-.3H20v5.7ZM5.7 20H0v-5.7l.3.6c1.1 2.1 2.8 3.8 4.8 4.8l.6.3ZM10 1.9c-4.4 0-8.1 3.6-8.1 8.1H0C0 4.5 4.5 0 10 0v1.9ZM10 18.1c4.4 0 8.1-3.6 8.1-8.1H20c0 5.5-4.5 10-10 10v-1.9Z" />
          <path fill="#2B60E7" d="M10 5.2c-2.6 0-4.8 2.1-4.8 4.8H3.3c0-3.7 3-6.7 6.7-6.7v1.9ZM10 14.8c2.6 0 4.8-2.1 4.8-4.8h1.9c0 3.7-3 6.7-6.7 6.7v-1.9Z" />
          <path fill="#2B60E7" d="M10 11.5c.8 0 1.5-.7 1.5-1.5h1.9c0 1.9-1.5 3.4-3.4 3.4v-1.9ZM10 8.5c-.8 0-1.5.7-1.5 1.5H6.6c0-1.9 1.5-3.4 3.4-3.4v1.9Z" />
        </svg>
