<svg xmlns="http://www.w3.org/2000/svg" viewBox="0 0 16 18" width="16" height="18" fill="none">
                  <path
                    fill="currentColor"
                    d="M8 .667C4.095.667.917 3.846.917 7.75a7.06 7.06 0 0 0 1.699 4.596l.003.004.003.003s3.013 3.438 4.086 4.462a1.881 1.881 0 0 0 2.583 0c1.223-1.166 4.088-4.464 4.088-4.464l.002-.002.002-.003a7.055 7.055 0 0 0 1.7-4.596C15.083 3.846 11.904.667 8 .667Zm0 1.25a5.824 5.824 0 0 1 5.833 5.833 5.792 5.792 0 0 1-1.4 3.784c-.006.007-2.937 3.36-4.004 4.377a.61.61 0 0 1-.859 0c-.891-.851-3.995-4.367-4.004-4.377a5.796 5.796 0 0 1-1.4-3.784A5.824 5.824 0 0 1 8 1.917ZM8 5.25c-.781 0-1.446.315-1.873.796A2.554 2.554 0 0 0 5.5 7.75c0 .608.2 1.224.627 1.704s1.092.796 1.873.796c.781 0 1.446-.315 1.873-.796.427-.48.627-1.096.627-1.704 0-.608-.2-1.224-.627-1.704S8.781 5.25 8 5.25ZM8 6.5c.469 0 .741.153.94.376.197.223.31.544.31.874 0 .33-.113.651-.31.874C8.74 8.847 8.468 9 8 9s-.741-.153-.94-.376a1.33 1.33 0 0 1-.31-.874c0-.33.113-.651.31-.874.199-.223.471-.376.94-.376Z"
                  />
                </svg>
