<svg xmlns="http://www.w3.org/2000/svg" viewBox="0 0 36 30" width="36" height="30" fill="none">
  <path fill="currentColor" d="M18 .75C12.383.75 7.748 5.032 7.185 10.5H6.75C3.03 10.5 0 13.53 0 17.25S3.03 24 6.75 24h1.455c.322-.735.592-1.485.817-2.25H6.75a4.504 4.504 0 0 1-4.5-4.5c0-2.482 2.018-4.5 4.5-4.5h1.5c.623 0 1.125-.502 1.125-1.125C9.375 6.87 13.245 3 18 3s8.625 3.87 8.625 8.625c0 .623.503 1.125 1.125 1.125h1.5c2.483 0 4.5 2.018 4.5 4.5 0 2.483-2.017 4.5-4.5 4.5h-2.272c.225.765.495 1.515.817 2.25h1.455c3.72 0 6.75-3.03 6.75-6.75s-3.03-6.75-6.75-6.75h-.435C28.252 5.032 23.617.75 18 .75Zm-4.893 12.734A1.125 1.125 0 0 0 12 14.625v1.963c0 2.815-.58 5.592-1.68 8.17a2.25 2.25 0 0 0 .18 4.492 2.25 2.25 0 0 0 1.853-3.523 23.082 23.082 0 0 0 1.897-9.14v-1.962a1.124 1.124 0 0 0-1.143-1.141Zm4.875 0a1.125 1.125 0 0 0-1.107 1.141v10.43A2.25 2.25 0 0 0 18 29.25a2.25 2.25 0 0 0 1.125-4.197V14.625a1.124 1.124 0 0 0-1.143-1.141Zm4.875 0a1.125 1.125 0 0 0-1.107 1.141v1.963c0 3.15.656 6.258 1.898 9.14A2.25 2.25 0 0 0 25.5 29.25a2.25 2.25 0 0 0 .18-4.491A20.837 20.837 0 0 1 24 16.588v-1.963a1.124 1.124 0 0 0-1.143-1.141Z" />
</svg>
