<svg xmlns="http://www.w3.org/2000/svg" viewBox="0 0 32 28" width="32" height="28" fill="none">
  <path fill="currentColor" d="M1.375.25a1.125 1.125 0 1 0 0 2.25A2.609 2.609 0 0 1 4 5.125v12c0 3.922 3.203 7.125 7.125 7.125h.752a1.875 1.875 0 1 0 2.997 0h9.752a1.875 1.875 0 1 0 2.998 0h3.001a1.126 1.126 0 1 0 0-2.25h-19.5a4.858 4.858 0 0 1-4.875-4.875v-12C6.25 2.446 4.054.25 1.375.25Zm8.25 2.25A1.125 1.125 0 0 0 8.5 3.625v12.75a3.392 3.392 0 0 0 3.375 3.375h14.25a3.392 3.392 0 0 0 3.375-3.375V3.625A1.125 1.125 0 0 0 28.375 2.5H9.625Zm1.125 2.25h16.5v11.625c0 .635-.49 1.125-1.125 1.125h-14.25c-.635 0-1.125-.49-1.125-1.125V4.75ZM16.375 7a1.125 1.125 0 1 0 0 2.25h5.25a1.126 1.126 0 1 0 0-2.25h-5.25Z" />
</svg>
