<svg xmlns="http://www.w3.org/2000/svg" viewBox="0 0 28 31" width="28" height="31" fill="none">
  <path fill="currentColor" d="M13.625.75C10.532.75 8 3.282 8 6.375S10.532 12 13.625 12s5.625-2.532 5.625-5.625S16.718.75 13.625.75Zm0 2.25A3.358 3.358 0 0 1 17 6.375a3.358 3.358 0 0 1-3.375 3.375 3.358 3.358 0 0 1-3.375-3.375A3.358 3.358 0 0 1 13.625 3Zm-3.75 10.5C4.711 13.5.5 17.71.5 22.875c0 3.902 3.172 7.09 7.066 7.122l.046.003H17c2.472 0 4.5-2.028 4.5-4.5S19.472 21 17 21h-1.125c-.057 0-.114.003-.17.012l-.876-5.262h3.296a7.108 7.108 0 0 1 7.125 7.125v6a1.125 1.125 0 1 0 2.25 0v-6c0-5.164-4.21-9.375-9.375-9.375h-8.25Zm0 2.25h2.672l2 12H8.333c-2.834-5.282.297-11.873.297-11.873a.828.828 0 0 0 .008-.014 7.2 7.2 0 0 1 1.236-.113Zm-4.107 1.3c-.782 2.374-1.61 6.346-.151 10.268a4.855 4.855 0 0 1-2.867-4.443 7.102 7.102 0 0 1 3.018-5.824Zm10.31 6.2H17c1.256 0 2.25.994 2.25 2.25s-.994 2.25-2.25 2.25h-.171l-.75-4.5Z" />
</svg>
