<svg xmlns="http://www.w3.org/2000/svg" viewBox="0 0 30 30" width="30" height="30" fill="none">
  <path fill="currentColor" d="M3.375.75A3.392 3.392 0 0 0 0 4.125v15.75a3.392 3.392 0 0 0 3.375 3.375H9.75V27H7.125a1.125 1.125 0 1 0 0 2.25h3.565c.121.02.244.02.365 0h7.885c.121.02.244.02.365 0h3.57a1.125 1.125 0 1 0 0-2.25H20.25v-3.75h6.375A3.392 3.392 0 0 0 30 19.875V4.125A3.392 3.392 0 0 0 26.625.75H3.375Zm0 2.25h23.25c.635 0 1.125.49 1.125 1.125v15.75c0 .635-.49 1.125-1.125 1.125H19.31c-.121-.02-.244-.02-.365 0H11.06c-.121-.02-.244-.02-.365 0h-7.32c-.635 0-1.125-.49-1.125-1.125V4.125C2.25 3.49 2.74 3 3.375 3Zm12.766 2.984a1.125 1.125 0 0 0-1.112.888l-2.25 9.75a1.126 1.126 0 1 0 2.192.506l2.25-9.75a1.125 1.125 0 0 0-1.08-1.394Zm-6.013 2.254a1.125 1.125 0 0 0-.857.405l-2.25 2.625a1.125 1.125 0 0 0 0 1.464l2.25 2.625a1.125 1.125 0 1 0 1.708-1.464L9.357 12l1.622-1.893a1.124 1.124 0 0 0-.851-1.869Zm9.71 0a1.125 1.125 0 0 0-.817 1.87L20.643 12l-1.622 1.893a1.127 1.127 0 0 0 .115 1.594 1.125 1.125 0 0 0 1.593-.13l2.25-2.625a1.125 1.125 0 0 0 0-1.464l-2.25-2.625a1.125 1.125 0 0 0-.89-.405ZM12 23.25h6V27h-6v-3.75Z" />
</svg>
