<svg xmlns="http://www.w3.org/2000/svg" viewBox="0 0 28 30" width="28" height="30" fill="none">
  <path fill="currentColor" d="M14 .762a3.93 3.93 0 0 0-2.435.84h-.001l-8.92 7.029A5.628 5.628 0 0 0 .5 13.049v13.567a2.643 2.643 0 0 0 2.625 2.625h21.75a2.643 2.643 0 0 0 2.625-2.625V13.05a5.628 5.628 0 0 0-2.145-4.418l-8.92-7.028A3.93 3.93 0 0 0 14 .762Zm0 2.244c.367 0 .735.122 1.043.365l8.92 7.028a3.373 3.373 0 0 1 1.287 2.65v13.567a.358.358 0 0 1-.375.375H23v-5.616a2.643 2.643 0 0 0-2.625-2.625H19.25v-4.875a2.643 2.643 0 0 0-2.625-2.625h-5.25a2.643 2.643 0 0 0-2.625 2.625v4.875H7.625A2.643 2.643 0 0 0 5 21.375v5.616H3.125a.358.358 0 0 1-.375-.375V13.05c0-1.035.473-2.01 1.286-2.651l8.921-7.027A1.683 1.683 0 0 1 14 3.006ZM11.375 13.5h5.25c.221 0 .375.154.375.375v4.875h-6v-4.875c0-.221.154-.375.375-.375ZM7.625 21h5.25v5.991H7.25v-5.616c0-.221.154-.375.375-.375Zm7.5 0h5.25c.221 0 .375.154.375.375v5.616h-5.625V21Z" />
</svg>
