<svg xmlns="http://www.w3.org/2000/svg" viewBox="0 0 29 32" width="29" height="32" fill="none">
  <path fill="currentColor" d="M11.25 0c-4.129 0-7.5 3.371-7.5 7.5s3.371 7.5 7.5 7.5 7.5-3.371 7.5-7.5S15.379 0 11.25 0Zm0 2.25A5.233 5.233 0 0 1 16.5 7.5a5.233 5.233 0 0 1-5.25 5.25A5.233 5.233 0 0 1 6 7.5a5.233 5.233 0 0 1 5.25-5.25ZM21 15c-.44 0-.871.037-1.292.108l-.26 1.074a3 3 0 0 1-3.765 2.174l-.904-.268a8.323 8.323 0 0 0-1.279 2.355l.67.645a3.001 3.001 0 0 1 0 4.324l-.67.646c.3.86.735 1.654 1.279 2.354l.904-.267a3 3 0 0 1 3.766 2.174l.259 1.074a7.815 7.815 0 0 0 2.584-.001l.26-1.074a3 3 0 0 1 3.765-2.174l.904.268c.543-.7.978-1.495 1.279-2.355l-.67-.645a3.001 3.001 0 0 1 0-4.324l.67-.645a8.32 8.32 0 0 0-1.279-2.355l-.904.268a3 3 0 0 1-3.766-2.174l-.259-1.074A7.723 7.723 0 0 0 21 15ZM3.375 18A3.38 3.38 0 0 0 0 21.375v.9C0 26.605 5.271 30 12 30c.644 0 1.27-.041 1.884-.101a9.73 9.73 0 0 1-1.532-2.16c-.119.003-.232.011-.352.011-6.022 0-9.75-2.842-9.75-5.476v-.899c0-.62.505-1.125 1.125-1.125h8.351A9.668 9.668 0 0 1 12.794 18H3.375ZM21 21a2.25 2.25 0 1 1 0 4.5 2.25 2.25 0 0 1 0-4.5Z" />
</svg>
