<svg xmlns="http://www.w3.org/2000/svg" viewBox="0 0 32 32" width="32" height="32" fill="none">
  <path fill="currentColor" d="M15.871.257a4.19 4.19 0 0 0-2.962 1.248L1.457 13.146a4.22 4.22 0 0 0 .048 5.945l11.641 11.452a4.22 4.22 0 0 0 5.945-.049l11.452-11.64h.001a4.221 4.221 0 0 0-.05-5.945L18.855 1.457a4.191 4.191 0 0 0-2.983-1.2Zm.02 2.236c.497-.004.996.185 1.385.568l11.641 11.452c.779.766.788 1.985.022 2.764l-11.452 11.64a1.937 1.937 0 0 1-2.763.022L3.083 17.487a1.937 1.937 0 0 1-.022-2.763L14.513 3.083c.383-.39.88-.586 1.377-.59ZM11.124 15.25a1.125 1.125 0 1 0 0 2.25 1.125 1.125 0 0 0 0-2.25Zm4.875 0a1.125 1.125 0 1 0 0 2.25 1.125 1.125 0 0 0 0-2.25Zm4.875 0a1.125 1.125 0 1 0 0 2.25 1.125 1.125 0 0 0 0-2.25Z" />
</svg>
