<svg xmlns="http://www.w3.org/2000/svg" viewBox="0 0 32 32" width="32" height="32" fill="none">
  <path fill="currentColor" d="M15 0C6.729 0 0 6.729 0 15s6.729 15 15 15c.395 0 .783-.029 1.17-.059a9.784 9.784 0 0 1-1.574-2.211C7.753 27.514 2.25 21.894 2.25 15 2.25 7.97 7.97 2.25 15 2.25c6.894 0 12.514 5.503 12.73 12.346a9.74 9.74 0 0 1 2.211 1.574c.03-.387.059-.775.059-1.17 0-8.271-6.729-15-15-15Zm.357 5.984a1.125 1.125 0 0 0-1.107 1.141V15H9.375a1.125 1.125 0 1 0 0 2.25h6a1.125 1.125 0 0 0 1.125-1.125v-9a1.124 1.124 0 0 0-1.143-1.141ZM23.25 15a8.25 8.25 0 1 0 0 16.5 8.25 8.25 0 0 0 0-16.5Zm4.5 4.5a.75.75 0 0 1 .53 1.28l-6 6a.748.748 0 0 1-1.06 0l-3-3a.75.75 0 1 1 1.06-1.06l2.47 2.47 5.47-5.47a.748.748 0 0 1 .53-.22Z" />
</svg>
