<svg xmlns="http://www.w3.org/2000/svg" viewBox="0 0 30 30" width="30" height="30" fill="none">
  <path fill="currentColor" d="M15 0C6.73 0 0 6.73 0 15s6.729 15 15 15 15-6.73 15-15S23.271 0 15 0Zm0 2.25c7.055 0 12.75 5.695 12.75 12.75S22.055 27.75 15 27.75A12.733 12.733 0 0 1 2.25 15C2.25 7.945 7.945 2.25 15 2.25Zm-.056 2.253a1.136 1.136 0 0 0-.882.5c-.037.06-.075.12-.105.194a1.694 1.694 0 0 0-.06.211 1.123 1.123 0 0 0 .308 1.012c.105.106.225.188.367.248a1.173 1.173 0 0 0 .856 0c.142-.06.262-.142.367-.248a1.126 1.126 0 0 0-.367-1.838 1.877 1.877 0 0 0-.211-.059 1.056 1.056 0 0 0-.273-.02Zm4.182.924a1.122 1.122 0 0 0-1.066.633 1.131 1.131 0 0 0 .517 1.507c.165.075.33.112.495.113.413 0 .818-.24 1.012-.637a1.117 1.117 0 0 0-.524-1.5 1.113 1.113 0 0 0-.433-.116Zm-8.26.005a1.128 1.128 0 0 0-.958 1.611 1.125 1.125 0 0 0 1.508.524c.554-.27.787-.945.517-1.5a1.118 1.118 0 0 0-1.067-.635Zm11.372 2.601a1.123 1.123 0 0 0 .09 2.241c.247 0 .495-.073.705-.238a1.13 1.13 0 0 0-.795-2.003Zm-14.48.005a1.127 1.127 0 0 0-.97.423 1.123 1.123 0 0 0 .179 1.582c.202.158.451.24.699.24.33 0 .66-.143.877-.42A1.129 1.129 0 0 0 8.37 8.28a1.115 1.115 0 0 0-.612-.243ZM14.984 9a1.125 1.125 0 0 0-.78.33l-3.374 3.375a1.125 1.125 0 1 0 1.59 1.59l1.455-1.454v7.034a1.125 1.125 0 1 0 2.25 0v-7.034l1.455 1.454a1.125 1.125 0 1 0 1.59-1.59L15.795 9.33a1.126 1.126 0 0 0-.811-.33Zm9.13 2.785c-.075.001-.15.01-.227.027-.6.143-.982.744-.84 1.351.113.518.578.87 1.095.87.083 0 .165-.008.248-.023a1.13 1.13 0 0 0 .848-1.35 1.124 1.124 0 0 0-1.124-.875Zm-18.236.007a1.117 1.117 0 0 0-1.116.874c-.142.609.24 1.21.848 1.351.083.016.165.023.248.022a1.12 1.12 0 0 0 1.094-.87 1.12 1.12 0 0 0-1.074-1.377Zm18.286 4.163a1.117 1.117 0 0 0-1.116.875 1.122 1.122 0 0 0 1.094 1.38 1.13 1.13 0 0 0 .248-2.229 1.143 1.143 0 0 0-.226-.026Zm-18.328.007a1.128 1.128 0 0 0-1.074 1.377c.12.518.586.87 1.096.87.082 0 .165-.006.247-.021.608-.144.99-.744.847-1.351a1.117 1.117 0 0 0-1.116-.875Zm16.588 3.756a1.114 1.114 0 0 0-.967.42 1.13 1.13 0 0 0 .173 1.583c.21.165.457.246.704.246a1.128 1.128 0 0 0 .7-2.01 1.116 1.116 0 0 0-.61-.239Zm-14.845.003a1.13 1.13 0 0 0-.791 1.825c.225.279.555.42.885.42.247 0 .495-.074.697-.245.488-.383.57-1.096.18-1.576a1.131 1.131 0 0 0-.97-.424Zm3.409 2.6a1.128 1.128 0 0 0-.548 2.143c.157.075.323.106.488.106.42 0 .817-.233 1.012-.63a1.13 1.13 0 0 0-.517-1.507 1.136 1.136 0 0 0-.435-.112Zm8.032 0a1.118 1.118 0 0 0-.952 1.611 1.12 1.12 0 0 0 1.5.524c.554-.268.794-.944.524-1.499a1.13 1.13 0 0 0-1.072-.636Zm-4.02.944c-.294 0-.59.105-.795.315-.053.052-.098.112-.143.172a.95.95 0 0 0-.098.195 1.007 1.007 0 0 0-.09.428 1.123 1.123 0 0 0 1.126 1.125c.15 0 .293-.03.428-.084.135-.06.262-.141.367-.247.105-.104.188-.225.248-.368a1.162 1.162 0 0 0 .06-.643 1.73 1.73 0 0 0-.06-.21 1.612 1.612 0 0 0-.105-.196c-.046-.06-.09-.12-.143-.172a1.114 1.114 0 0 0-.795-.315Z" />
</svg>
