<svg xmlns="http://www.w3.org/2000/svg" viewBox="0 0 24 30" width="24" height="30" fill="none">
  <path fill="currentColor" d="M3.375 0A3.392 3.392 0 0 0 0 3.375v23.25A3.392 3.392 0 0 0 3.375 30h17.25A3.392 3.392 0 0 0 24 26.625V3.375A3.392 3.392 0 0 0 20.625 0H3.375Zm0 2.25h17.25c.635 0 1.125.49 1.125 1.125v23.25c0 .635-.49 1.125-1.125 1.125H3.375c-.635 0-1.125-.49-1.125-1.125V3.375c0-.635.49-1.125 1.125-1.125ZM12 4.5a2.625 2.625 0 1 0 0 5.25 2.625 2.625 0 0 0 0-5.25Zm-3.375 6.75c-.621 0-1.125.504-1.125 1.125v.75c0 1.45 2.014 2.625 4.5 2.625s4.5-1.175 4.5-2.625v-.75c0-.621-.504-1.125-1.125-1.125h-6.75ZM6.375 18a1.125 1.125 0 1 0 0 2.25h11.25a1.125 1.125 0 1 0 0-2.25H6.375Zm0 4.5a1.125 1.125 0 1 0 0 2.25h8.25a1.125 1.125 0 1 0 0-2.25h-8.25Z" />
</svg>
